<svg width="219" height="200" viewBox="0 0 219 200" fill="none" xmlns="http://www.w3.org/2000/svg">
<path d="M0 32.5396V2.53162C0 -20.6755 15.9683 -40.8322 38.5599 -46.142L234.183 -92.1204C268.598 -100.209 300.308 -71.0023 295.071 -36.04L266.122 157.224C261.33 189.219 227.874 208.308 197.892 196.156L174.207 186.555C165.229 182.916 157.501 176.748 151.964 168.799L113.545 113.655C106.828 104.014 96.9293 97.0459 85.5869 93.9749L36.933 80.8019C15.136 74.9004 0 55.1213 0 32.5396Z" fill="#FF914D"/>
<path d="M0 32.5396V2.53162C0 -20.6755 15.9683 -40.8322 38.5599 -46.142L234.183 -92.1204C268.598 -100.209 300.308 -71.0023 295.071 -36.04L266.122 157.224C261.33 189.219 227.874 208.308 197.892 196.156L174.207 186.555C165.229 182.916 157.501 176.748 151.964 168.799L113.545 113.655C106.828 104.014 96.9293 97.0459 85.5869 93.9749L36.933 80.8019C15.136 74.9004 0 55.1213 0 32.5396Z" stroke="black"/>
</svg>
