<svg width="45" height="24" viewBox="0 0 45 24" fill="none" xmlns="http://www.w3.org/2000/svg">
<path d="M2.96 6.264V23H0.144V6.264H2.96ZM2.96 3.224H0.144V0.0239983H2.96V3.224ZM16.9658 11.608V23H14.1498V12.696C14.1498 11.1813 13.8831 10.072 13.3498 9.368C12.8164 8.664 11.8884 8.312 10.5658 8.312C10.1178 8.312 9.63775 8.39733 9.12575 8.568C8.63508 8.73867 8.15508 9.03733 7.68575 9.464C7.23775 9.86933 6.86442 10.4453 6.56575 11.192C6.28842 11.9173 6.14975 12.8133 6.14975 13.88V23H3.33375V6.264H5.98975V8.632H6.05375C6.26708 8.33333 6.50175 8.03467 6.75775 7.736C7.03508 7.43733 7.37642 7.13867 7.78175 6.84C8.20842 6.54133 8.69908 6.296 9.25375 6.104C9.80842 5.89067 10.4271 5.784 11.1098 5.784C11.8351 5.784 12.5284 5.86933 13.1898 6.04C13.8724 6.21067 14.5018 6.52 15.0778 6.968C15.6538 7.39467 16.1124 7.992 16.4538 8.76C16.7951 9.528 16.9658 10.4773 16.9658 11.608ZM30.459 11.896H27.739C27.5683 10.744 27.1523 9.85867 26.491 9.24C25.8297 8.62133 24.923 8.312 23.771 8.312C22.939 8.312 22.2243 8.49333 21.627 8.856C21.0297 9.21867 20.5497 9.69867 20.187 10.296C19.8243 10.8933 19.5577 11.5653 19.387 12.312C19.2377 13.0587 19.163 13.8267 19.163 14.616C19.163 15.4267 19.227 16.2053 19.355 16.952C19.483 17.6773 19.707 18.36 20.027 19C20.3683 19.6187 20.8377 20.12 21.435 20.504C22.0537 20.8667 22.8217 21.048 23.739 21.048C24.7203 21.048 25.5737 20.7067 26.299 20.024C27.0243 19.32 27.5043 18.3387 27.739 17.08H30.459C30.3737 17.8267 30.1923 18.5627 29.915 19.288C29.659 20.0133 29.2643 20.696 28.731 21.336C28.1977 21.976 27.5043 22.4987 26.651 22.904C25.819 23.288 24.8163 23.48 23.643 23.48C21.339 23.48 19.515 22.7013 18.171 21.144C16.827 19.5867 16.155 17.5707 16.155 15.096C16.155 13.7733 16.315 12.5573 16.635 11.448C16.955 10.3173 17.4457 9.32533 18.107 8.472C18.7897 7.61867 19.6323 6.95733 20.635 6.488C21.659 6.01867 22.843 5.784 24.187 5.784C25.2323 5.784 26.139 5.95467 26.907 6.296C27.6963 6.63733 28.3363 7.10667 28.827 7.704C29.339 8.28 29.723 8.93067 29.979 9.656C30.235 10.3813 30.395 11.128 30.459 11.896ZM31.931 11.352H29.339C29.403 9.41067 30.0323 8.00267 31.227 7.128C32.4217 6.232 34.0963 5.784 36.251 5.784C36.7417 5.784 37.307 5.83733 37.947 5.944C38.6083 6.05067 39.2803 6.264 39.963 6.584C40.667 6.88267 41.2537 7.352 41.723 7.992C42.2137 8.632 42.459 9.45333 42.459 10.456V20.088C42.459 20.7493 42.7683 21.08 43.387 21.08C43.579 21.08 43.8883 21.0373 44.315 20.952V23C44.2297 23.0213 44.1123 23.0533 43.963 23.096C43.4937 23.2453 43.099 23.32 42.779 23.32C41.6483 23.32 40.8803 23.096 40.475 22.648C40.091 22.1787 39.867 21.5493 39.803 20.76C39.0777 21.5493 38.2457 22.2 37.307 22.712C36.3897 23.224 35.2057 23.48 33.755 23.48C32.219 23.48 30.9603 23.032 29.979 22.136C28.9977 21.24 28.507 20.0773 28.507 18.648C28.507 18.1787 28.5603 17.6987 28.667 17.208C28.7737 16.696 28.9977 16.1733 29.339 15.64C29.7017 15.1067 30.2243 14.6373 30.907 14.232C31.611 13.8053 32.507 13.528 33.595 13.4L38.235 12.824C38.683 12.7813 39.035 12.632 39.291 12.376C39.5683 12.0987 39.707 11.5867 39.707 10.84C39.707 9.02667 38.395 8.12 35.771 8.12C35.0243 8.12 34.4057 8.22667 33.915 8.44C33.4243 8.632 33.0403 8.888 32.763 9.208C32.507 9.528 32.315 9.85867 32.187 10.2C32.0803 10.5413 31.995 10.9253 31.931 11.352ZM39.643 17.208V14.456C39.387 14.648 38.9497 14.8187 38.331 14.968C37.7337 15.1173 36.6243 15.2987 35.003 15.512C34.5763 15.576 34.1603 15.6613 33.755 15.768C33.371 15.8533 32.9977 15.992 32.635 16.184C32.2723 16.376 31.9737 16.6427 31.739 16.984C31.5257 17.3253 31.419 17.7413 31.419 18.232C31.419 19.1707 31.6643 19.896 32.155 20.408C32.667 20.8987 33.435 21.144 34.459 21.144C35.099 21.144 35.7283 21.048 36.347 20.856C36.987 20.6427 37.5523 20.3653 38.043 20.024C38.5337 19.6613 38.9177 19.2453 39.195 18.776C39.4937 18.2853 39.643 17.7627 39.643 17.208Z" fill="#F1F1F1"/>
</svg>
